Coordinates
version=1
nRows=13
nColumns=36
inDegrees=yes

Units are S.I. units (second, meters, Newtons, ...)
If the header above contains a line with 'inDegrees', this indicates whether rotational values are in degrees (yes) or radians (no).

endheader
time	pelvis_tilt	pelvis_list	pelvis_rotation	pelvis_tx	pelvis_ty	pelvis_tz	hip_flexion_r	hip_adduction_r	hip_rotation_r	knee_angle_r	knee_angle_r_beta	ankle_angle_r	subtalar_angle_r	mtp_angle_r	hip_flexion_l	hip_adduction_l	hip_rotation_l	knee_angle_l	knee_angle_l_beta	ankle_angle_l	subtalar_angle_l	mtp_angle_l	lumbar_extension	lumbar_bending	lumbar_rotation	arm_flex_r	arm_add_r	arm_rot_r	elbow_flex_r	pro_sup_r	arm_flex_l	arm_add_l	arm_rot_l	elbow_flex_l	pro_sup_l
      1.30833330	    -22.08932917	     -2.55166117	      0.70566775	     -0.66581185	      1.23116218	     -0.08861791	     15.42446159	      1.91915034	      3.30580462	     26.62224651	      0.46464586	     15.52327491	    -23.05125851	     -7.49999987	     26.48967900	      0.01956506	      6.11422365	     47.45042709	      0.82816618	     11.02281244	    -16.33332631	     -7.49999987	     -2.64408282	     -0.82638677	     -2.97208510	    108.65491056	      0.01127403	     12.41818721	     81.68075095	     84.06859256	    119.49547102	     -4.01875327	     33.01444127	     77.09484931	     72.20600562
      1.31250000	    -22.21807242	     -2.49537977	      0.40966178	     -0.66525434	      1.24142706	     -0.08864557	     14.89523836	      1.68836456	      2.45078378	     24.89665114	      0.43452854	     14.08247245	    -21.80572720	     -7.49999987	     26.51430004	     -0.49766401	      5.41769281	     46.78329264	      0.81652249	      9.20799516	    -14.72119496	     -7.49999987	     -2.25417455	     -0.98001144	     -2.00391218	    109.10211030	     -0.91803331	     13.19461890	     82.03930096	     82.77558658	    119.63971590	     -3.93613936	     32.97584256	     77.71377496	     71.81092600
      1.31666670	    -21.54451021	     -2.01143303	     -0.11319377	     -0.64810342	      1.25073837	     -0.09335094	     12.67515143	      0.60130282	      0.73273468	     22.25038378	      0.38834246	     11.32893410	    -18.67417492	     -7.49999987	     24.24462525	     -0.35841761	      4.42906804	     44.77019414	      0.78138729	      7.66786064	    -12.74974575	     -7.49999987	     -1.77299835	     -1.14580298	     -0.87613636	    108.35584985	     -1.22144914	     14.14862303	     82.34086664	     83.20267420	    118.27702971	     -4.13588871	     32.15410861	     78.69104175	     72.20454767
      1.32083330	    -21.09868028	     -1.74166809	     -0.03579039	     -0.63760548	      1.25894568	     -0.09402748	     10.80449316	     -0.06220796	     -0.82387196	     20.17006947	      0.35203412	      8.73515503	    -16.91596530	     -7.49999987	     22.33498628	     -0.23130975	      4.14546763	     42.32054589	      0.73863287	      5.51784133	    -11.96851816	     -7.49999987	     -0.90571664	     -1.37552759	     -0.77328487	    107.00946266	     -1.23865002	     14.85158686	     82.06862888	     86.00011084	    117.46150283	     -4.19098329	     32.81637277	     78.50761001	     74.97381113
      1.32500000	    -21.01073965	     -1.76142031	     -0.37768875	     -0.63172158	      1.26450773	     -0.08943306	      9.77634841	     -0.14792492	     -1.73928186	     18.89966077	      0.32986131	      5.69803825	    -15.00901154	     -7.49999987	     20.95947085	     -0.72389532	      3.88668793	     40.11570247	      0.70015109	      3.70851923	    -11.11188960	     -7.49999987	      0.09601400	     -1.05220953	     -0.57710738	    106.04262661	     -0.50677427	     15.59852989	     82.35436911	     86.03997536	    116.93534663	     -4.72492145	     33.54081898	     78.05899499	     75.05056649
      1.32916670	    -20.66658132	     -1.73897008	     -0.42336332	     -0.61485339	      1.26732879	     -0.09406513	      8.10915849	     -0.53331597	     -2.51599090	     17.62093946	      0.30754341	      3.05834789	    -12.32006887	     -7.49999987	     19.18441828	     -0.75445330	      4.44256723	     38.18098524	      0.66638390	      0.55148645	    -10.52603210	     -7.49999987	      0.97837089	     -0.77699863	     -0.70559000	    104.97545584	     -0.44142154	     15.62291675	     82.68597723	     86.05243234	    116.30953101	     -5.24101557	     34.48801608	     78.11494643	     75.20056180
      1.33333330	    -20.27258709	     -1.94171425	      0.16545953	     -0.59848920	      1.27691059	     -0.09937530	      5.90280860	     -0.76074063	     -3.63854045	     15.74300909	      0.27476734	     -0.31166010	     -9.54196389	     -7.49999987	     17.46686236	     -0.87652268	      4.78848514	     36.36329556	      0.63465923	     -3.16843157	     -9.80302327	     -7.49999987	      2.48033849	     -0.07237588	     -0.84947680	    102.89135602	     -1.11539916	     16.52651466	     83.15069554	     86.08740221	    114.18222994	     -5.80086167	     35.04184300	     78.24005749	     75.27291933
      1.33750000	    -19.98883389	     -1.94773955	      0.41447051	     -0.59383919	      1.28377039	     -0.09440929	      4.30618170	     -0.82603555	     -4.87317714	     13.81430060	      0.24110503	     -3.34334959	     -7.34212688	     -7.49999987	     16.22924689	     -1.14042546	      5.45472357	     34.17445961	      0.59645684	     -6.70086578	     -9.03217760	     -7.49999987	      3.69666585	      0.08644123	     -0.44892851	    101.72091851	     -1.62042898	     17.27565217	     83.02340802	     86.07533215	    112.15017360	     -6.06748178	     35.45544435	     78.75411006	     75.38312309
      1.34166670	    -19.84307941	     -1.98257888	      0.85966316	     -0.59381852	      1.29419598	     -0.09567808	      3.64000323	     -0.98054880	     -6.22245294	     12.50927791	      0.21832809	     -6.24934140	     -5.49616996	     -7.49999987	     15.68250479	     -1.31058921	      6.02261289	     32.71784014	      0.57103403	     -9.39583899	     -8.04743463	     -7.49999987	      4.11311086	     -0.00241757	     -0.79502092	    101.38052349	     -1.63481359	     17.99775093	     82.55033160	     86.01203146	    111.71724556	     -6.06491373	     36.13680721	     78.49300546	     75.52227929
      1.34583330	    -19.54986109	     -2.03865628	      1.22750164	     -0.58832617	      1.30172117	     -0.09143100	      3.30792932	     -0.85476150	     -7.63350475	     11.92666164	      0.20815951	     -9.25826436	     -4.02265594	     -7.49999987	     14.96294765	     -1.75130992	      6.20883957	     31.06933932	      0.54226227	    -12.31418731	     -7.15923563	     -7.49999987	      4.36663906	     -0.19834129	     -1.33804149	    101.08516882	     -1.13926383	     18.80348542	     81.10017906	     85.87987727	    111.56428829	     -6.72040737	     37.24782871	     76.80870125	     75.67908433
      1.35000000	    -19.56508858	     -2.28292135	      1.81173689	     -0.58207196	      1.30913241	     -0.08871175	      3.33187807	     -0.61959898	     -9.04964213	     11.63710761	      0.20310584	    -12.52359635	     -2.78710434	     -7.49999987	     14.67087743	     -2.45193591	      5.85595401	     29.90489869	      0.52193894	    -16.19653107	     -7.30181615	     -7.49999987	      4.55107760	     -0.46173195	     -2.24086507	    100.52370435	     -0.31674284	     19.00136016	     80.51714335	     85.63526556	    111.75921921	     -7.37067004	     38.60831032	     75.21414300	     75.74018483
      1.35416670	    -19.46048119	     -2.34228872	      1.03506131	     -0.57652112	      1.31689604	     -0.09258739	      3.36159956	     -0.83858809	     -8.94687602	     11.29057162	      0.19705765	    -15.55892036	     -0.46367611	     -7.49999987	     14.07226151	     -2.63668502	      5.29671988	     29.21284847	      0.50986039	    -19.05756824	     -6.89173727	     -7.49999987	      4.66886545	      0.19157317	     -2.04373080	     99.90544615	      0.90842400	     20.08118934	     80.02473555	     85.37945740	    110.66078553	     -9.27814837	     38.58113579	     75.65010380	     75.60687809
      1.35833330	    -19.54818697	     -2.87474080	      1.33840363	     -0.57509401	      1.32625846	     -0.09365999	      3.53782160	     -0.32736142	     -9.35865942	     10.04053511	      0.17524040	    -18.08858614	      1.19055787	     -7.49999987	     14.46681136	     -3.23698993	      5.30326280	     28.40560205	      0.49577128	    -22.88451060	     -6.68570399	     -7.49999987	      4.72275359	      0.66895893	     -2.41613637	     98.81678638	      0.79292060	     20.36390417	     81.47154919	     85.21179940	    109.81976800	     -9.83573217	     38.74237851	     76.46493185	     75.54395228
